<?xml version="1.0" encoding="UTF-8"?>
<svg id="Layer_2" data-name="Layer 2" xmlns="http://www.w3.org/2000/svg" viewBox="0 0 2148.36 1022.58">
  <defs>
    <style>
      .cls-1 {
        fill: #fff;
        stroke: #231f20;
        stroke-miterlimit: 10;
        stroke-width: 22px;
      }
    </style>
  </defs>
  <g id="Layer_1-2" data-name="Layer 1">
    <path class="cls-1" d="m19.37,37.07v959.15h10.4v-468.55l466.57,233.28v235.27h10.41v-230.06l457.94,228.96,2.53,1.27,16.5,8.32V37.07H19.37Zm10.4,17.77l459.22,459.21H29.77V54.84Zm466.57,694.48L46.6,524.45h449.74v224.87Zm0-242.63L37.13,47.48h459.21v459.21Zm10.41-459.21h459.21l-459.21,459.21V47.48Zm466.57,940.33l-466.57-233.29v-230.07h466.57v463.36Zm0-473.76h-459.22L973.32,54.84v459.21Z"/>
    <path class="cls-1" d="m1626.38,32.76c-.89.05-1.79.11-2.68.17-120.3,7.8-228.72,59.92-309.05,140.14l-133.8-133.79-4.99-5-.03.03-7.99-7.92v964.63h10.4v-406.16c34.34,232.42,235.15,411.36,476.97,411.36,8.31,0,16.58-.21,24.78-.63h457.33v-3.68h.04V32.76h-510.98Zm-448.14,18.62l129.13,129.13c-67.69,70.53-114.18,161.54-129.13,262.68V51.38Zm494.89,934.11c-5.95.22-11.92.33-17.92.33-260.13,0-471.77-211.64-471.77-471.77,0-126.44,50-241.41,131.28-326.19l358.41,358.41v439.22Zm0-453.94l-351.13-351.13c79.12-79.01,186.07-130.15,304.7-137.26h46.43v488.39Zm10.41,25.13l297.86,297.86c-78.4,75.17-182.62,123.58-297.86,130.43v-428.29Zm6.51-8.21h435.65c-8.42,116.27-59.16,220.99-136.86,298.79l-298.79-298.79Zm68.01,436.71c88.33-19.27,167.68-62.81,230.7-123.28l123.28,123.28h-353.98Zm368.89.19l-130.76-130.76c64.73-64.81,111.15-147.89,130.76-240.75v371.51Zm0-468.07v20.77h-443.41V43.16h443.41v467.64c.01,1.08.03,2.16.03,3.25s-.02,2.17-.03,3.25Z"/>
  </g>
</svg>